<svg xmlns="http://www.w3.org/2000/svg" width="400" height="630" viewBox="0 0 400 630">
  <rect id="사각형_497" data-name="사각형 497" width="400" height="630" fill="#005293"/>
  <g id="그룹_229" data-name="그룹 229" transform="translate(-11659 -7112)">
    <path id="사각형_509" data-name="사각형 509" d="M135,0h0A135,135,0,0,1,270,135v0A135,135,0,0,1,135,270H0a0,0,0,0,1,0,0V135A135,135,0,0,1,135,0Z" transform="translate(11709 7158)" fill="#eee2ee"/>
    <path id="사각형_510" data-name="사각형 510" d="M0,0H135A135,135,0,0,1,270,135v0A135,135,0,0,1,135,270H0a0,0,0,0,1,0,0V0A0,0,0,0,1,0,0Z" transform="translate(11979 7427) rotate(90)" fill="#eee2ee"/>
  </g>
  <text id="gram을_선택하는_이유" data-name="gram을
선택하는
이유" transform="translate(79 385)" font-size="34" font-family="Montserrat-Bold, Montserrat" font-weight="700"><tspan x="0" y="0">gram</tspan><tspan y="0" font-family="MalgunGothicBold, Malgun Gothic" font-weight="400">을</tspan><tspan y="0"></tspan><tspan font-family="MalgunGothicBold, Malgun Gothic" font-weight="400"><tspan x="0" y="44">선택하는</tspan><tspan y="44" font-family="Montserrat-Bold, Montserrat" font-weight="700"></tspan><tspan x="0" y="88">이유</tspan></tspan></text>
</svg>
