<svg xmlns="http://www.w3.org/2000/svg" xmlns:xlink="http://www.w3.org/1999/xlink" width="720" height="834" viewBox="0 0 720 834">
  <defs>
    <clipPath id="clip-path">
      <rect id="사각형_299" data-name="사각형 299" width="26" height="25" fill="#fa3b53"/>
    </clipPath>
    <clipPath id="clip-path-2">
      <rect id="사각형_318" data-name="사각형 318" width="26" height="25" fill="none"/>
    </clipPath>
    <clipPath id="clip-path-31">
      <rect id="사각형_580" data-name="사각형 580" width="43.295" height="41.592" fill="#fa3b53"/>
    </clipPath>
    <clipPath id="clip-path-32">
      <rect id="사각형_579" data-name="사각형 579" width="43.295" height="41.592" fill="none"/>
    </clipPath>
  </defs>
  <g id="그룹_291" data-name="그룹 291" transform="translate(-337 -371)">
    <rect id="사각형_626" data-name="사각형 626" width="720" height="834" transform="translate(337 371)" fill="#fff"/>
    <g id="그룹_276" data-name="그룹 276" transform="translate(337 -17)">
      <g id="그룹_218" data-name="그룹 218" transform="translate(-5 -650)">
        <g id="그룹_217" data-name="그룹 217" transform="translate(50 352)">
          <g id="그룹_215" data-name="그룹 215" transform="translate(0 1350)">
            <g id="그룹_214" data-name="그룹 214" transform="translate(-9)">
              <g id="그룹_204" data-name="그룹 204" transform="translate(-61 5)">
                <g id="그룹_123" data-name="그룹 123" transform="translate(193)" clip-path="url(#clip-path)">
                  <g id="그룹_135" data-name="그룹 135">
                    <g id="그룹_134" data-name="그룹 134" clip-path="url(#clip-path-2)">
                      <path id="패스_29" data-name="패스 29" d="M14.979,1.233,17.8,6.962l6.308.919a2.213,2.213,0,0,1,1.223,3.773l-4.565,4.459,1.079,6.3a2.208,2.208,0,0,1-3.2,2.331L13,21.768,7.358,24.741a2.208,2.208,0,0,1-3.2-2.331l1.077-6.3L.668,11.654A2.213,2.213,0,0,1,1.891,7.881L8.2,6.962,11.02,1.233a2.2,2.2,0,0,1,3.958,0" transform="translate(0 0)" fill="#faba00"/>
                    </g>
                  </g>
                </g>
                <g id="그룹_123-2" data-name="그룹 123" transform="translate(160)" clip-path="url(#clip-path)">
                  <g id="그룹_135-2" data-name="그룹 135">
                    <g id="그룹_134-2" data-name="그룹 134" clip-path="url(#clip-path-2)">
                      <path id="패스_29-2" data-name="패스 29" d="M14.979,1.233,17.8,6.962l6.308.919a2.213,2.213,0,0,1,1.223,3.773l-4.565,4.459,1.079,6.3a2.208,2.208,0,0,1-3.2,2.331L13,21.768,7.358,24.741a2.208,2.208,0,0,1-3.2-2.331l1.077-6.3L.668,11.654A2.213,2.213,0,0,1,1.891,7.881L8.2,6.962,11.02,1.233a2.2,2.2,0,0,1,3.958,0" transform="translate(0 0)" fill="#faba00"/>
                    </g>
                  </g>
                </g>
                <g id="그룹_207" data-name="그룹 207" transform="translate(127)" clip-path="url(#clip-path)">
                  <g id="그룹_206" data-name="그룹 206">
                    <g id="그룹_205" data-name="그룹 205" clip-path="url(#clip-path-2)">
                      <path id="패스_41" data-name="패스 41" d="M14.979,1.233,17.8,6.962l6.308.919a2.213,2.213,0,0,1,1.223,3.773l-4.565,4.459,1.079,6.3a2.208,2.208,0,0,1-3.2,2.331L13,21.768,7.358,24.741a2.208,2.208,0,0,1-3.2-2.331l1.077-6.3L.668,11.654A2.213,2.213,0,0,1,1.891,7.881L8.2,6.962,11.02,1.233a2.2,2.2,0,0,1,3.958,0" transform="translate(0 0)" fill="#faba00"/>
                    </g>
                  </g>
                </g>
                <g id="그룹_210" data-name="그룹 210" transform="translate(94)" clip-path="url(#clip-path)">
                  <g id="그룹_209" data-name="그룹 209">
                    <g id="그룹_208" data-name="그룹 208" clip-path="url(#clip-path-2)">
                      <path id="패스_42" data-name="패스 42" d="M14.979,1.233,17.8,6.962l6.308.919a2.213,2.213,0,0,1,1.223,3.773l-4.565,4.459,1.079,6.3a2.208,2.208,0,0,1-3.2,2.331L13,21.768,7.358,24.741a2.208,2.208,0,0,1-3.2-2.331l1.077-6.3L.668,11.654A2.213,2.213,0,0,1,1.891,7.881L8.2,6.962,11.02,1.233a2.2,2.2,0,0,1,3.958,0" transform="translate(0 0)" fill="#faba00"/>
                    </g>
                  </g>
                </g>
                <g id="그룹_213" data-name="그룹 213" transform="translate(61)" clip-path="url(#clip-path)">
                  <g id="그룹_212" data-name="그룹 212">
                    <g id="그룹_211" data-name="그룹 211" clip-path="url(#clip-path-2)">
                      <path id="패스_43" data-name="패스 43" d="M14.979,1.233,17.8,6.962l6.308.919a2.213,2.213,0,0,1,1.223,3.773l-4.565,4.459,1.079,6.3a2.208,2.208,0,0,1-3.2,2.331L13,21.768,7.358,24.741a2.208,2.208,0,0,1-3.2-2.331l1.077-6.3L.668,11.654A2.213,2.213,0,0,1,1.891,7.881L8.2,6.962,11.02,1.233a2.2,2.2,0,0,1,3.958,0" transform="translate(0 0)" fill="#faba00"/>
                    </g>
                  </g>
                </g>
              </g>
              <text id="최고" transform="translate(166 28)" font-size="24" font-family="SourceHanSansK-Regular, Source Han Sans K"><tspan x="0" y="0">최고</tspan></text>
            </g>
            <text id="배송기사님_감사_합니다_바쁘신데_시간_배려_해주시면_배송해_주셔서_넘_감사합니다_출장가서_언박싱_합니다...." data-name="배송기사님 감사 합니다 바쁘신데 시간 배려 해주시면 배송해
주셔서 넘 감사합니다 출장가서 언박싱 합니다...." transform="translate(-9 74)" fill="#555" font-size="25" font-family="SourceHanSansK-Regular, Source Han Sans K"><tspan x="0" y="0">배송기사님 감사 합니다 바쁘신데 시간 배려 해주시면 배송해</tspan><tspan x="0" y="34">주셔서 넘 감사합니다 출장가서 언박싱 합니다....</tspan></text>
            <text id="정_모" data-name="정*모" transform="translate(639 26)" fill="#999" font-size="20" font-family="SourceHanSansK-Regular, Source Han Sans K"><tspan x="-46.14" y="0">정*모</tspan></text>
            <text id="_2022.4.19" data-name="2022.4.19" transform="translate(573 26)" fill="#999" font-size="20" font-family="SourceHanSansK-Regular, Source Han Sans K"><tspan x="-88.82" y="0">2022.4.19</tspan></text>
          </g>
        </g>
        <g id="그룹_216" data-name="그룹 216" transform="translate(41 176)">
          <g id="그룹_215-2" data-name="그룹 215" transform="translate(0 1350)">
            <g id="그룹_214-2" data-name="그룹 214">
              <g id="그룹_204-2" data-name="그룹 204" transform="translate(-61 5)">
                <g id="그룹_123-3" data-name="그룹 123" transform="translate(193)" clip-path="url(#clip-path)">
                  <g id="그룹_135-3" data-name="그룹 135">
                    <g id="그룹_134-3" data-name="그룹 134" clip-path="url(#clip-path-2)">
                      <path id="패스_29-3" data-name="패스 29" d="M14.979,1.233,17.8,6.962l6.308.919a2.213,2.213,0,0,1,1.223,3.773l-4.565,4.459,1.079,6.3a2.208,2.208,0,0,1-3.2,2.331L13,21.768,7.358,24.741a2.208,2.208,0,0,1-3.2-2.331l1.077-6.3L.668,11.654A2.213,2.213,0,0,1,1.891,7.881L8.2,6.962,11.02,1.233a2.2,2.2,0,0,1,3.958,0" transform="translate(0 0)" fill="#faba00"/>
                    </g>
                  </g>
                </g>
                <g id="그룹_123-4" data-name="그룹 123" transform="translate(160)" clip-path="url(#clip-path)">
                  <g id="그룹_135-4" data-name="그룹 135">
                    <g id="그룹_134-4" data-name="그룹 134" clip-path="url(#clip-path-2)">
                      <path id="패스_29-4" data-name="패스 29" d="M14.979,1.233,17.8,6.962l6.308.919a2.213,2.213,0,0,1,1.223,3.773l-4.565,4.459,1.079,6.3a2.208,2.208,0,0,1-3.2,2.331L13,21.768,7.358,24.741a2.208,2.208,0,0,1-3.2-2.331l1.077-6.3L.668,11.654A2.213,2.213,0,0,1,1.891,7.881L8.2,6.962,11.02,1.233a2.2,2.2,0,0,1,3.958,0" transform="translate(0 0)" fill="#faba00"/>
                    </g>
                  </g>
                </g>
                <g id="그룹_207-2" data-name="그룹 207" transform="translate(127)" clip-path="url(#clip-path)">
                  <g id="그룹_206-2" data-name="그룹 206">
                    <g id="그룹_205-2" data-name="그룹 205" clip-path="url(#clip-path-2)">
                      <path id="패스_41-2" data-name="패스 41" d="M14.979,1.233,17.8,6.962l6.308.919a2.213,2.213,0,0,1,1.223,3.773l-4.565,4.459,1.079,6.3a2.208,2.208,0,0,1-3.2,2.331L13,21.768,7.358,24.741a2.208,2.208,0,0,1-3.2-2.331l1.077-6.3L.668,11.654A2.213,2.213,0,0,1,1.891,7.881L8.2,6.962,11.02,1.233a2.2,2.2,0,0,1,3.958,0" transform="translate(0 0)" fill="#faba00"/>
                    </g>
                  </g>
                </g>
                <g id="그룹_210-2" data-name="그룹 210" transform="translate(94)" clip-path="url(#clip-path)">
                  <g id="그룹_209-2" data-name="그룹 209">
                    <g id="그룹_208-2" data-name="그룹 208" clip-path="url(#clip-path-2)">
                      <path id="패스_42-2" data-name="패스 42" d="M14.979,1.233,17.8,6.962l6.308.919a2.213,2.213,0,0,1,1.223,3.773l-4.565,4.459,1.079,6.3a2.208,2.208,0,0,1-3.2,2.331L13,21.768,7.358,24.741a2.208,2.208,0,0,1-3.2-2.331l1.077-6.3L.668,11.654A2.213,2.213,0,0,1,1.891,7.881L8.2,6.962,11.02,1.233a2.2,2.2,0,0,1,3.958,0" transform="translate(0 0)" fill="#faba00"/>
                    </g>
                  </g>
                </g>
                <g id="그룹_213-2" data-name="그룹 213" transform="translate(61)" clip-path="url(#clip-path)">
                  <g id="그룹_212-2" data-name="그룹 212">
                    <g id="그룹_211-2" data-name="그룹 211" clip-path="url(#clip-path-2)">
                      <path id="패스_43-2" data-name="패스 43" d="M14.979,1.233,17.8,6.962l6.308.919a2.213,2.213,0,0,1,1.223,3.773l-4.565,4.459,1.079,6.3a2.208,2.208,0,0,1-3.2,2.331L13,21.768,7.358,24.741a2.208,2.208,0,0,1-3.2-2.331l1.077-6.3L.668,11.654A2.213,2.213,0,0,1,1.891,7.881L8.2,6.962,11.02,1.233a2.2,2.2,0,0,1,3.958,0" transform="translate(0 0)" fill="#faba00"/>
                    </g>
                  </g>
                </g>
              </g>
              <text id="최고-2" data-name="최고" transform="translate(166 28)" font-size="24" font-family="SourceHanSansK-Regular, Source Han Sans K"><tspan x="0" y="0">최고</tspan></text>
            </g>
            <text id="배송기사님_감사_합니다_바쁘신데_시간_배려_해주시면_배송해_주셔서_넘_감사합니다_출장가서_언박싱_합니다....-2" data-name="배송기사님 감사 합니다 바쁘신데 시간 배려 해주시면 배송해
주셔서 넘 감사합니다 출장가서 언박싱 합니다...." transform="translate(0 74)" fill="#555" font-size="25" font-family="SourceHanSansK-Regular, Source Han Sans K"><tspan x="0" y="0">배송기사님 감사 합니다 바쁘신데 시간 배려 해주시면 배송해</tspan><tspan x="0" y="34">주셔서 넘 감사합니다 출장가서 언박싱 합니다....</tspan></text>
            <text id="정_모-2" data-name="정*모" transform="translate(648 26)" fill="#999" font-size="20" font-family="SourceHanSansK-Regular, Source Han Sans K"><tspan x="-46.14" y="0">정*모</tspan></text>
            <text id="_2022.4.19-2" data-name="2022.4.19" transform="translate(582 26)" fill="#999" font-size="20" font-family="SourceHanSansK-Regular, Source Han Sans K"><tspan x="-88.82" y="0">2022.4.19</tspan></text>
          </g>
          <rect id="사각형_463" data-name="사각형 463" width="648" height="1" transform="translate(0 1495)" opacity="0.1"/>
        </g>
        <g id="그룹_219" data-name="그룹 219" transform="translate(41)">
          <g id="그룹_215-3" data-name="그룹 215" transform="translate(0 1350)">
            <g id="그룹_214-3" data-name="그룹 214">
              <g id="그룹_204-3" data-name="그룹 204" transform="translate(-61 5)">
                <g id="그룹_123-5" data-name="그룹 123" transform="translate(193)" clip-path="url(#clip-path)">
                  <g id="그룹_135-5" data-name="그룹 135">
                    <g id="그룹_134-5" data-name="그룹 134" clip-path="url(#clip-path-2)">
                      <path id="패스_29-5" data-name="패스 29" d="M14.979,1.233,17.8,6.962l6.308.919a2.213,2.213,0,0,1,1.223,3.773l-4.565,4.459,1.079,6.3a2.208,2.208,0,0,1-3.2,2.331L13,21.768,7.358,24.741a2.208,2.208,0,0,1-3.2-2.331l1.077-6.3L.668,11.654A2.213,2.213,0,0,1,1.891,7.881L8.2,6.962,11.02,1.233a2.2,2.2,0,0,1,3.958,0" transform="translate(0 0)" fill="#faba00"/>
                    </g>
                  </g>
                </g>
                <g id="그룹_123-6" data-name="그룹 123" transform="translate(160)" clip-path="url(#clip-path)">
                  <g id="그룹_135-6" data-name="그룹 135">
                    <g id="그룹_134-6" data-name="그룹 134" clip-path="url(#clip-path-2)">
                      <path id="패스_29-6" data-name="패스 29" d="M14.979,1.233,17.8,6.962l6.308.919a2.213,2.213,0,0,1,1.223,3.773l-4.565,4.459,1.079,6.3a2.208,2.208,0,0,1-3.2,2.331L13,21.768,7.358,24.741a2.208,2.208,0,0,1-3.2-2.331l1.077-6.3L.668,11.654A2.213,2.213,0,0,1,1.891,7.881L8.2,6.962,11.02,1.233a2.2,2.2,0,0,1,3.958,0" transform="translate(0 0)" fill="#faba00"/>
                    </g>
                  </g>
                </g>
                <g id="그룹_207-3" data-name="그룹 207" transform="translate(127)" clip-path="url(#clip-path)">
                  <g id="그룹_206-3" data-name="그룹 206">
                    <g id="그룹_205-3" data-name="그룹 205" clip-path="url(#clip-path-2)">
                      <path id="패스_41-3" data-name="패스 41" d="M14.979,1.233,17.8,6.962l6.308.919a2.213,2.213,0,0,1,1.223,3.773l-4.565,4.459,1.079,6.3a2.208,2.208,0,0,1-3.2,2.331L13,21.768,7.358,24.741a2.208,2.208,0,0,1-3.2-2.331l1.077-6.3L.668,11.654A2.213,2.213,0,0,1,1.891,7.881L8.2,6.962,11.02,1.233a2.2,2.2,0,0,1,3.958,0" transform="translate(0 0)" fill="#faba00"/>
                    </g>
                  </g>
                </g>
                <g id="그룹_210-3" data-name="그룹 210" transform="translate(94)" clip-path="url(#clip-path)">
                  <g id="그룹_209-3" data-name="그룹 209">
                    <g id="그룹_208-3" data-name="그룹 208" clip-path="url(#clip-path-2)">
                      <path id="패스_42-3" data-name="패스 42" d="M14.979,1.233,17.8,6.962l6.308.919a2.213,2.213,0,0,1,1.223,3.773l-4.565,4.459,1.079,6.3a2.208,2.208,0,0,1-3.2,2.331L13,21.768,7.358,24.741a2.208,2.208,0,0,1-3.2-2.331l1.077-6.3L.668,11.654A2.213,2.213,0,0,1,1.891,7.881L8.2,6.962,11.02,1.233a2.2,2.2,0,0,1,3.958,0" transform="translate(0 0)" fill="#faba00"/>
                    </g>
                  </g>
                </g>
                <g id="그룹_213-3" data-name="그룹 213" transform="translate(61)" clip-path="url(#clip-path)">
                  <g id="그룹_212-3" data-name="그룹 212">
                    <g id="그룹_211-3" data-name="그룹 211" clip-path="url(#clip-path-2)">
                      <path id="패스_43-3" data-name="패스 43" d="M14.979,1.233,17.8,6.962l6.308.919a2.213,2.213,0,0,1,1.223,3.773l-4.565,4.459,1.079,6.3a2.208,2.208,0,0,1-3.2,2.331L13,21.768,7.358,24.741a2.208,2.208,0,0,1-3.2-2.331l1.077-6.3L.668,11.654A2.213,2.213,0,0,1,1.891,7.881L8.2,6.962,11.02,1.233a2.2,2.2,0,0,1,3.958,0" transform="translate(0 0)" fill="#faba00"/>
                    </g>
                  </g>
                </g>
              </g>
              <text id="최고-3" data-name="최고" transform="translate(166 28)" font-size="24" font-family="SourceHanSansK-Regular, Source Han Sans K"><tspan x="0" y="0">최고</tspan></text>
            </g>
            <text id="배송기사님_감사_합니다_바쁘신데_시간_배려_해주시면_배송해_주셔서_넘_감사합니다_출장가서_언박싱_합니다....-3" data-name="배송기사님 감사 합니다 바쁘신데 시간 배려 해주시면 배송해
주셔서 넘 감사합니다 출장가서 언박싱 합니다...." transform="translate(0 74)" fill="#555" font-size="25" font-family="SourceHanSansK-Regular, Source Han Sans K"><tspan x="0" y="0">배송기사님 감사 합니다 바쁘신데 시간 배려 해주시면 배송해</tspan><tspan x="0" y="34">주셔서 넘 감사합니다 출장가서 언박싱 합니다....</tspan></text>
            <text id="정_모-3" data-name="정*모" transform="translate(648 26)" fill="#999" font-size="20" font-family="SourceHanSansK-Regular, Source Han Sans K"><tspan x="-46.14" y="0">정*모</tspan></text>
            <text id="_2022.4.19-3" data-name="2022.4.19" transform="translate(582 26)" fill="#999" font-size="20" font-family="SourceHanSansK-Regular, Source Han Sans K"><tspan x="-88.82" y="0">2022.4.19</tspan></text>
          </g>
          <rect id="사각형_463-2" data-name="사각형 463" width="648" height="1" transform="translate(0 1495)" opacity="0.1"/>
        </g>
      </g>
      <rect id="사각형_464" data-name="사각형 464" width="720" height="276" transform="translate(0 394)" fill="#f5f5f5" opacity="0.8"/>
      <rect id="사각형_581" data-name="사각형 581" width="1" height="184" transform="translate(278 440)" fill="#dfdfdf" opacity="0.8"/>
      <g id="그룹_267" data-name="그룹 267" transform="translate(21.5 -3380)">
        <g id="그룹_266" data-name="그룹 266" transform="translate(-7.5 25)">
          <g id="그룹_265" data-name="그룹 265" transform="translate(63.5 3886)" clip-path="url(#clip-path-31)">
            <g id="그룹_264" data-name="그룹 264">
              <g id="그룹_263" data-name="그룹 263" clip-path="url(#clip-path-32)">
                <path id="패스_59" data-name="패스 59" d="M24.943,2.053l4.7,9.54,10.5,1.53a3.685,3.685,0,0,1,2.036,6.282l-7.6,7.426,1.8,10.486A3.677,3.677,0,0,1,31.043,41.2l-9.4-4.951-9.4,4.951A3.676,3.676,0,0,1,6.92,37.317L8.715,26.832l-7.6-7.426a3.685,3.685,0,0,1,2.036-6.282l10.5-1.53,4.7-9.54a3.671,3.671,0,0,1,6.591,0" transform="translate(-0.001 -0.001)" fill="#faba00"/>
              </g>
            </g>
          </g>
          <text id="_5.0" data-name="5.0" transform="translate(121 3927)" fill="#111" font-size="50" font-family="SourceHanSansK-Bold, Source Han Sans K" font-weight="700" letter-spacing="-0.01em"><tspan x="0" y="0">5.0</tspan></text>
        </g>
        <text id="리뷰_평점" data-name="리뷰 평점" transform="translate(75 3887)" fill="#999" font-size="24" font-family="SourceHanSansK-Regular, Source Han Sans K"><tspan x="0" y="0">리뷰 평점</tspan></text>
      </g>
      <g id="그룹_272" data-name="그룹 272" transform="translate(0 -3382)">
        <g id="그룹_269" data-name="그룹 269" transform="translate(-50 164)">
          <text id="나쁨" transform="translate(379 3843)" font-size="22" font-family="SourceHanSansK-Regular, Source Han Sans K"><tspan x="0" y="0">나쁨</tspan></text>
          <g id="사각형_582" data-name="사각형 582" transform="translate(449 3829)" fill="#e3e3e3" stroke="#d8d8d8" stroke-width="1">
            <rect width="249" height="10" rx="5" stroke="none"/>
            <rect x="0.5" y="0.5" width="248" height="9" rx="4.5" fill="none"/>
          </g>
          <text id="_0" data-name="0" transform="translate(708 3842)" font-size="22" font-family="SourceHanSansK-Regular, Source Han Sans K"><tspan x="0" y="0">0</tspan></text>
        </g>
        <g id="그룹_273" data-name="그룹 273" transform="translate(-50 123)">
          <text id="별로" transform="translate(379 3843)" font-size="22" font-family="SourceHanSansK-Regular, Source Han Sans K"><tspan x="0" y="0">별로</tspan></text>
          <g id="사각형_582-2" data-name="사각형 582" transform="translate(449 3829)" fill="#e3e3e3" stroke="#d8d8d8" stroke-width="1">
            <rect width="249" height="10" rx="5" stroke="none"/>
            <rect x="0.5" y="0.5" width="248" height="9" rx="4.5" fill="none"/>
          </g>
          <text id="_0-2" data-name="0" transform="translate(708 3842)" font-size="22" font-family="SourceHanSansK-Regular, Source Han Sans K"><tspan x="0" y="0">0</tspan></text>
        </g>
        <g id="그룹_274" data-name="그룹 274" transform="translate(-50 82)">
          <text id="보통" transform="translate(379 3843)" font-size="22" font-family="SourceHanSansK-Regular, Source Han Sans K"><tspan x="0" y="0">보통</tspan></text>
          <g id="사각형_582-3" data-name="사각형 582" transform="translate(449 3829)" fill="#e3e3e3" stroke="#d8d8d8" stroke-width="1">
            <rect width="249" height="10" rx="5" stroke="none"/>
            <rect x="0.5" y="0.5" width="248" height="9" rx="4.5" fill="none"/>
          </g>
          <text id="_0-3" data-name="0" transform="translate(708 3842)" font-size="22" font-family="SourceHanSansK-Regular, Source Han Sans K"><tspan x="0" y="0">0</tspan></text>
        </g>
        <g id="그룹_275" data-name="그룹 275" transform="translate(-50 41)">
          <text id="좋음" transform="translate(379 3843)" font-size="22" font-family="SourceHanSansK-Regular, Source Han Sans K"><tspan x="0" y="0">좋음</tspan></text>
          <g id="사각형_582-4" data-name="사각형 582" transform="translate(449 3829)" fill="#e3e3e3" stroke="#d8d8d8" stroke-width="1">
            <rect width="249" height="10" rx="5" stroke="none"/>
            <rect x="0.5" y="0.5" width="248" height="9" rx="4.5" fill="none"/>
          </g>
          <text id="_0-4" data-name="0" transform="translate(708 3842)" font-size="22" font-family="SourceHanSansK-Regular, Source Han Sans K"><tspan x="0" y="0">0</tspan></text>
        </g>
        <g id="그룹_271" data-name="그룹 271" transform="translate(-50)">
          <text id="최고-4" data-name="최고" transform="translate(379 3843)" font-size="22" font-family="SourceHanSansK-Regular, Source Han Sans K"><tspan x="0" y="0">최고</tspan></text>
          <g id="사각형_582-5" data-name="사각형 582" transform="translate(449 3829)" fill="#e3e3e3" stroke="#d8d8d8" stroke-width="1">
            <rect width="249" height="10" rx="5" stroke="none"/>
            <rect x="0.5" y="0.5" width="248" height="9" rx="4.5" fill="none"/>
          </g>
          <g id="사각형_583" data-name="사각형 583" transform="translate(449 3829)" fill="#fa3b53" stroke="#fa3b53" stroke-width="1">
            <rect width="210" height="10" rx="5" stroke="none"/>
            <rect x="0.5" y="0.5" width="209" height="9" rx="4.5" fill="none"/>
          </g>
          <text id="_20" data-name="20" transform="translate(708 3842)" fill="#fa3b53" font-size="22" font-family="SourceHanSansK-Regular, Source Han Sans K"><tspan x="0" y="0">20</tspan></text>
        </g>
      </g>
    </g>
  </g>
</svg>
